<svg width="48" height="67" viewBox="0 0 48 67" fill="none" xmlns="http://www.w3.org/2000/svg">
<path d="M24.6504 34.6975C31.5313 34.6975 37.1093 29.1194 37.1093 22.2385C37.1093 15.3576 31.5313 9.77954 24.6504 9.77954C17.7695 9.77954 12.1914 15.3576 12.1914 22.2385C12.1914 29.1194 17.7695 34.6975 24.6504 34.6975Z" fill="#FFAC7E"/>
<path d="M45.8702 22.3308C45.8702 24.4215 41.7649 25.8312 41.1527 27.716C40.5195 29.6694 42.9891 33.2226 41.8071 34.8487C40.6145 36.4907 36.4617 35.2341 34.8206 36.4273C33.1953 37.61 33.1162 41.9551 31.1637 42.5886C29.2799 43.2011 26.6732 39.7535 24.5835 39.7535C22.4939 39.7535 19.8872 43.2011 18.0034 42.5886C16.0509 41.9551 15.9718 37.61 14.3465 36.4273C12.7054 35.2341 8.55258 36.4907 7.36002 34.8487C6.17802 33.2226 8.64757 29.6694 8.01435 27.716C7.40224 25.8312 3.29688 24.4162 3.29688 22.3308C3.29688 20.2453 7.40224 18.8304 8.01435 16.9456C8.64757 14.9921 6.17802 11.4389 7.36002 9.81281C8.55258 8.17085 12.7054 9.4274 14.3465 8.23421C15.9718 7.05157 16.0509 2.70645 18.0034 2.0729C19.8872 1.46047 22.4939 4.90805 24.5835 4.90805C26.6732 4.90805 29.2799 1.46047 31.1637 2.0729C33.1162 2.70645 33.1953 7.05157 34.8206 8.23421C36.4617 9.4274 40.6145 8.17085 41.8071 9.81281C42.9891 11.4389 40.5195 14.9921 41.1527 16.9456C41.7596 18.8251 45.8702 20.24 45.8702 22.3308Z" stroke="white" stroke-width="2.5" stroke-miterlimit="10"/>
<path d="M24.25 43.4809L33.1731 63.876C33.7694 65.2381 35.6163 65.3912 36.0753 64.1189L37.5476 59.2247C37.8325 58.4274 38.7507 58.1159 39.5739 58.5383L44.381 61.2573C45.695 61.9278 46.9403 60.7399 46.3493 59.383L35.9804 35.6829" stroke="white" stroke-width="2.5" stroke-miterlimit="10"/>
<path d="M25.7384 40.0808L15.3272 63.876C14.731 65.2381 12.8841 65.3912 12.425 64.1189L10.9528 59.2247C10.6678 58.4274 9.74965 58.1159 8.92647 58.5383L4.11929 61.2573C2.80537 61.9278 1.56004 60.7399 2.15104 59.383L12.5253 35.6829" stroke="white" stroke-width="2.5" stroke-miterlimit="10"/>
</svg>
