<svg width="51" height="54" viewBox="0 0 51 54" fill="none" xmlns="http://www.w3.org/2000/svg">
<path d="M43.6645 37.8633L34.9814 46.5198C33.8689 47.6283 32.3702 48.247 30.7995 48.247H7.92264C4.65231 48.247 2 45.5918 2 42.3179V7.9291C2 4.65521 4.65231 2 7.92264 2H39.4826C42.7529 2 45.4052 4.65521 45.4052 7.9291V33.6614C45.4103 35.2391 44.782 36.7497 43.6645 37.8633Z" stroke="white" stroke-width="2.5" stroke-miterlimit="10"/>
<path d="M48.9288 43.3953L40.2457 52.0518C39.1333 53.1603 37.6346 53.779 36.0638 53.779H13.1922C9.92184 53.779 7.26953 51.1238 7.26953 47.8499V13.4611C7.26953 10.1872 9.92184 7.53198 13.1922 7.53198H44.7521C48.0224 7.53198 50.6747 10.1872 50.6747 13.4611V39.1934C50.6747 40.7711 50.0464 42.2817 48.9288 43.3953Z" fill="#FFAC7E"/>
<path d="M15.7266 21.5492C15.7266 20.9058 16.2481 20.3843 16.8915 20.3843H41.7434C42.3868 20.3843 42.9083 20.9058 42.9083 21.5492C42.9083 22.1926 42.3868 22.7141 41.7434 22.7141H16.8915C16.2481 22.7141 15.7266 22.1926 15.7266 21.5492Z" fill="white"/>
<path d="M15.7266 26.986C15.7266 26.3426 16.2481 25.821 16.8915 25.821H41.7434C42.3868 25.821 42.9083 26.3426 42.9083 26.986C42.9083 27.6294 42.3868 28.1509 41.7434 28.1509H16.8915C16.2481 28.1509 15.7266 27.6294 15.7266 26.986Z" fill="white"/>
<path d="M15.7266 32.4223C15.7266 31.7789 16.2481 31.2573 16.8915 31.2573H41.7434C42.3868 31.2573 42.9083 31.7789 42.9083 32.4223C42.9083 33.0656 42.3868 33.5872 41.7434 33.5872H16.8915C16.2481 33.5872 15.7266 33.0656 15.7266 32.4223Z" fill="white"/>
<path d="M15.7266 37.8585C15.7266 37.2152 16.2481 36.6936 16.8915 36.6936H29.3174C29.9608 36.6936 30.4824 37.2152 30.4824 37.8585C30.4824 38.5019 29.9608 39.0235 29.3174 39.0235H16.8915C16.2481 39.0235 15.7266 38.5019 15.7266 37.8585Z" fill="white"/>
</svg>
